<mxfile host="app.diagrams.net" agent="Mozilla/5.0 (Windows NT 10.0; Win64; x64) AppleWebKit/537.36 (KHTML, like Gecko) Chrome/131.0.0.0 Safari/537.36 Edg/131.0.0.0" version="24.9.1">
  <diagram name="第 1 页" id="04uuIHaP94S5tHdTwGuf">
    <mxGraphModel dx="1869" dy="565" grid="1" gridSize="10" guides="1" tooltips="1" connect="1" arrows="1" fold="1" page="1" pageScale="1" pageWidth="827" pageHeight="1169" math="0" shadow="0">
      <root>
        <mxCell id="0" />
        <mxCell id="1" parent="0" />
        <mxCell id="x51nU_Jw9TD-8PZG_cWg-2" value="" style="rounded=0;whiteSpace=wrap;html=1;" vertex="1" parent="1">
          <mxGeometry x="595" y="130" width="190" height="100" as="geometry" />
        </mxCell>
        <mxCell id="x51nU_Jw9TD-8PZG_cWg-3" value="" style="shape=cylinder3;whiteSpace=wrap;html=1;boundedLbl=1;backgroundOutline=1;size=15;" vertex="1" parent="1">
          <mxGeometry x="610" y="160" width="30" height="45" as="geometry" />
        </mxCell>
        <mxCell id="x51nU_Jw9TD-8PZG_cWg-5" value="" style="shape=cylinder3;whiteSpace=wrap;html=1;boundedLbl=1;backgroundOutline=1;size=15;" vertex="1" parent="1">
          <mxGeometry x="675" y="155" width="30" height="50" as="geometry" />
        </mxCell>
        <mxCell id="x51nU_Jw9TD-8PZG_cWg-6" value="" style="shape=cylinder3;whiteSpace=wrap;html=1;boundedLbl=1;backgroundOutline=1;size=15;" vertex="1" parent="1">
          <mxGeometry x="730" y="155" width="30" height="50" as="geometry" />
        </mxCell>
        <mxCell id="x51nU_Jw9TD-8PZG_cWg-12" value="" style="endArrow=none;html=1;rounded=0;entryX=0;entryY=0;entryDx=0;entryDy=0;dashed=1;" edge="1" parent="1" target="x51nU_Jw9TD-8PZG_cWg-2">
          <mxGeometry width="50" height="50" relative="1" as="geometry">
            <mxPoint x="500" y="150" as="sourcePoint" />
            <mxPoint x="550" y="100" as="targetPoint" />
          </mxGeometry>
        </mxCell>
        <mxCell id="x51nU_Jw9TD-8PZG_cWg-13" value="" style="endArrow=none;html=1;rounded=0;exitX=1;exitY=1;exitDx=0;exitDy=0;entryX=0;entryY=1;entryDx=0;entryDy=0;dashed=1;" edge="1" parent="1" target="x51nU_Jw9TD-8PZG_cWg-2">
          <mxGeometry width="50" height="50" relative="1" as="geometry">
            <mxPoint x="500" y="210" as="sourcePoint" />
            <mxPoint x="530" y="210" as="targetPoint" />
          </mxGeometry>
        </mxCell>
        <mxCell id="x51nU_Jw9TD-8PZG_cWg-14" value="日志文件" style="text;html=1;align=center;verticalAlign=middle;whiteSpace=wrap;rounded=0;" vertex="1" parent="1">
          <mxGeometry x="595" y="130" width="60" height="30" as="geometry" />
        </mxCell>
        <mxCell id="x51nU_Jw9TD-8PZG_cWg-15" value="守护进程daemon" style="rounded=0;whiteSpace=wrap;html=1;" vertex="1" parent="1">
          <mxGeometry x="621" y="260" width="120" height="60" as="geometry" />
        </mxCell>
        <mxCell id="x51nU_Jw9TD-8PZG_cWg-21" value="" style="endArrow=classic;html=1;rounded=0;entryX=0.25;entryY=0;entryDx=0;entryDy=0;" edge="1" parent="1" target="x51nU_Jw9TD-8PZG_cWg-15">
          <mxGeometry width="50" height="50" relative="1" as="geometry">
            <mxPoint x="625" y="205" as="sourcePoint" />
            <mxPoint x="675" y="155" as="targetPoint" />
          </mxGeometry>
        </mxCell>
        <mxCell id="x51nU_Jw9TD-8PZG_cWg-22" value="" style="endArrow=classic;html=1;rounded=0;entryX=0.5;entryY=0;entryDx=0;entryDy=0;" edge="1" parent="1" target="x51nU_Jw9TD-8PZG_cWg-15">
          <mxGeometry width="50" height="50" relative="1" as="geometry">
            <mxPoint x="691" y="205" as="sourcePoint" />
            <mxPoint x="741" y="155" as="targetPoint" />
          </mxGeometry>
        </mxCell>
        <mxCell id="x51nU_Jw9TD-8PZG_cWg-23" value="" style="endArrow=classic;html=1;rounded=0;exitX=0.5;exitY=1;exitDx=0;exitDy=0;exitPerimeter=0;entryX=0.75;entryY=0;entryDx=0;entryDy=0;" edge="1" parent="1" source="x51nU_Jw9TD-8PZG_cWg-6" target="x51nU_Jw9TD-8PZG_cWg-15">
          <mxGeometry width="50" height="50" relative="1" as="geometry">
            <mxPoint x="770" y="300" as="sourcePoint" />
            <mxPoint x="820" y="250" as="targetPoint" />
          </mxGeometry>
        </mxCell>
        <mxCell id="x51nU_Jw9TD-8PZG_cWg-24" value="" style="rounded=1;whiteSpace=wrap;html=1;" vertex="1" parent="1">
          <mxGeometry x="650" y="355" width="120" height="60" as="geometry" />
        </mxCell>
        <mxCell id="x51nU_Jw9TD-8PZG_cWg-26" value="" style="rounded=1;whiteSpace=wrap;html=1;" vertex="1" parent="1">
          <mxGeometry x="635" y="365" width="120" height="60" as="geometry" />
        </mxCell>
        <mxCell id="x51nU_Jw9TD-8PZG_cWg-82" value="" style="edgeStyle=orthogonalEdgeStyle;rounded=0;orthogonalLoop=1;jettySize=auto;html=1;" edge="1" parent="1" source="x51nU_Jw9TD-8PZG_cWg-27" target="x51nU_Jw9TD-8PZG_cWg-81">
          <mxGeometry relative="1" as="geometry" />
        </mxCell>
        <mxCell id="x51nU_Jw9TD-8PZG_cWg-27" value="Collectors" style="rounded=1;whiteSpace=wrap;html=1;" vertex="1" parent="1">
          <mxGeometry x="610" y="385" width="120" height="60" as="geometry" />
        </mxCell>
        <mxCell id="x51nU_Jw9TD-8PZG_cWg-29" value="" style="endArrow=classic;html=1;rounded=0;entryX=0.5;entryY=0;entryDx=0;entryDy=0;exitX=0.5;exitY=1;exitDx=0;exitDy=0;" edge="1" parent="1" source="x51nU_Jw9TD-8PZG_cWg-15" target="x51nU_Jw9TD-8PZG_cWg-27">
          <mxGeometry width="50" height="50" relative="1" as="geometry">
            <mxPoint x="715" y="325" as="sourcePoint" />
            <mxPoint x="765" y="275" as="targetPoint" />
          </mxGeometry>
        </mxCell>
        <mxCell id="x51nU_Jw9TD-8PZG_cWg-30" value="read" style="text;html=1;align=center;verticalAlign=middle;whiteSpace=wrap;rounded=0;" vertex="1" parent="1">
          <mxGeometry x="665" y="325" width="60" height="30" as="geometry" />
        </mxCell>
        <mxCell id="x51nU_Jw9TD-8PZG_cWg-60" value="" style="edgeStyle=orthogonalEdgeStyle;rounded=0;orthogonalLoop=1;jettySize=auto;html=1;dashed=1;" edge="1" parent="1" source="x51nU_Jw9TD-8PZG_cWg-59">
          <mxGeometry relative="1" as="geometry">
            <mxPoint x="440" y="150" as="targetPoint" />
          </mxGeometry>
        </mxCell>
        <mxCell id="x51nU_Jw9TD-8PZG_cWg-59" value="Config" style="rounded=1;whiteSpace=wrap;html=1;" vertex="1" parent="1">
          <mxGeometry x="380" y="30" width="120" height="60" as="geometry" />
        </mxCell>
        <mxCell id="x51nU_Jw9TD-8PZG_cWg-61" value="配置下发" style="text;html=1;align=center;verticalAlign=middle;whiteSpace=wrap;rounded=0;" vertex="1" parent="1">
          <mxGeometry x="450" y="100" width="60" height="30" as="geometry" />
        </mxCell>
        <mxCell id="x51nU_Jw9TD-8PZG_cWg-62" value="Trace 收集器" style="text;html=1;align=center;verticalAlign=middle;whiteSpace=wrap;rounded=0;" vertex="1" parent="1">
          <mxGeometry x="635" y="445" width="75" height="30" as="geometry" />
        </mxCell>
        <mxCell id="x51nU_Jw9TD-8PZG_cWg-63" value="" style="rounded=1;whiteSpace=wrap;html=1;dashed=1;" vertex="1" parent="1">
          <mxGeometry x="270" y="260" width="200" height="120" as="geometry" />
        </mxCell>
        <mxCell id="x51nU_Jw9TD-8PZG_cWg-64" value="" style="shape=cylinder3;whiteSpace=wrap;html=1;boundedLbl=1;backgroundOutline=1;size=15;" vertex="1" parent="1">
          <mxGeometry x="290" y="270" width="60" height="80" as="geometry" />
        </mxCell>
        <mxCell id="x51nU_Jw9TD-8PZG_cWg-65" value="" style="shape=cylinder3;whiteSpace=wrap;html=1;boundedLbl=1;backgroundOutline=1;size=15;" vertex="1" parent="1">
          <mxGeometry x="384" y="270" width="60" height="80" as="geometry" />
        </mxCell>
        <mxCell id="x51nU_Jw9TD-8PZG_cWg-66" value="链路日志" style="text;html=1;align=center;verticalAlign=middle;whiteSpace=wrap;rounded=0;" vertex="1" parent="1">
          <mxGeometry x="290" y="305" width="60" height="30" as="geometry" />
        </mxCell>
        <mxCell id="x51nU_Jw9TD-8PZG_cWg-67" value="倒排索引" style="text;html=1;align=center;verticalAlign=middle;whiteSpace=wrap;rounded=0;" vertex="1" parent="1">
          <mxGeometry x="384" y="305" width="60" height="30" as="geometry" />
        </mxCell>
        <mxCell id="x51nU_Jw9TD-8PZG_cWg-68" value="HBase" style="text;html=1;align=center;verticalAlign=middle;whiteSpace=wrap;rounded=0;" vertex="1" parent="1">
          <mxGeometry x="290" y="350" width="60" height="30" as="geometry" />
        </mxCell>
        <mxCell id="x51nU_Jw9TD-8PZG_cWg-69" value="ES" style="text;html=1;align=center;verticalAlign=middle;whiteSpace=wrap;rounded=0;" vertex="1" parent="1">
          <mxGeometry x="384" y="350" width="60" height="30" as="geometry" />
        </mxCell>
        <mxCell id="x51nU_Jw9TD-8PZG_cWg-70" value="" style="shape=actor;whiteSpace=wrap;html=1;" vertex="1" parent="1">
          <mxGeometry y="275" width="40" height="60" as="geometry" />
        </mxCell>
        <mxCell id="x51nU_Jw9TD-8PZG_cWg-71" value="" style="shape=singleArrow;whiteSpace=wrap;html=1;" vertex="1" parent="1">
          <mxGeometry x="50" y="280" width="100" height="60" as="geometry" />
        </mxCell>
        <mxCell id="x51nU_Jw9TD-8PZG_cWg-72" value="" style="rounded=1;whiteSpace=wrap;html=1;" vertex="1" parent="1">
          <mxGeometry x="160" y="250" width="60" height="130" as="geometry" />
        </mxCell>
        <mxCell id="x51nU_Jw9TD-8PZG_cWg-73" value="Web" style="text;html=1;align=center;verticalAlign=middle;whiteSpace=wrap;rounded=0;" vertex="1" parent="1">
          <mxGeometry x="160" y="295" width="60" height="30" as="geometry" />
        </mxCell>
        <mxCell id="x51nU_Jw9TD-8PZG_cWg-74" value="用户" style="text;html=1;align=center;verticalAlign=middle;whiteSpace=wrap;rounded=0;" vertex="1" parent="1">
          <mxGeometry x="-10" y="335" width="60" height="30" as="geometry" />
        </mxCell>
        <mxCell id="x51nU_Jw9TD-8PZG_cWg-76" value="" style="endArrow=classic;html=1;rounded=0;" edge="1" parent="1" target="x51nU_Jw9TD-8PZG_cWg-63">
          <mxGeometry width="50" height="50" relative="1" as="geometry">
            <mxPoint x="220" y="320" as="sourcePoint" />
            <mxPoint x="270" y="270" as="targetPoint" />
          </mxGeometry>
        </mxCell>
        <mxCell id="x51nU_Jw9TD-8PZG_cWg-77" value="查询" style="text;html=1;align=center;verticalAlign=middle;whiteSpace=wrap;rounded=0;" vertex="1" parent="1">
          <mxGeometry x="210" y="290" width="60" height="30" as="geometry" />
        </mxCell>
        <mxCell id="x51nU_Jw9TD-8PZG_cWg-84" style="edgeStyle=orthogonalEdgeStyle;rounded=0;orthogonalLoop=1;jettySize=auto;html=1;entryX=1;entryY=0.5;entryDx=0;entryDy=0;" edge="1" parent="1" source="x51nU_Jw9TD-8PZG_cWg-81" target="x51nU_Jw9TD-8PZG_cWg-63">
          <mxGeometry relative="1" as="geometry" />
        </mxCell>
        <mxCell id="x51nU_Jw9TD-8PZG_cWg-81" value="kafka" style="rounded=1;whiteSpace=wrap;html=1;" vertex="1" parent="1">
          <mxGeometry x="460" y="385" width="120" height="60" as="geometry" />
        </mxCell>
        <mxCell id="x51nU_Jw9TD-8PZG_cWg-85" value="解析存储" style="text;html=1;align=center;verticalAlign=middle;whiteSpace=wrap;rounded=0;" vertex="1" parent="1">
          <mxGeometry x="490" y="290" width="60" height="30" as="geometry" />
        </mxCell>
        <mxCell id="x51nU_Jw9TD-8PZG_cWg-86" value="业务应用" style="rounded=1;whiteSpace=wrap;html=1;" vertex="1" parent="1">
          <mxGeometry x="384" y="150" width="120" height="60" as="geometry" />
        </mxCell>
      </root>
    </mxGraphModel>
  </diagram>
</mxfile>
